<svg width="144" height="45" viewBox="0 0 144 45" fill="none" xmlns="http://www.w3.org/2000/svg">
<g clip-path="url(#clip0_1_1336)">
<path d="M75.8914 11.3063C75.8914 12.9279 74.5868 14.2342 72.9673 14.2342C71.3478 14.2342 70.0432 12.9279 70.0432 11.3063C70.0432 9.68468 71.3028 8.37838 72.9673 8.37838C74.6318 8.42342 75.8914 9.72973 75.8914 11.3063ZM63.8351 17.2072C63.8351 17.4775 63.8351 17.9279 63.8351 17.9279C63.8351 17.9279 62.4406 16.1261 59.4715 16.1261C54.568 16.1261 50.7442 19.8649 50.7442 25.045C50.7442 30.1802 54.523 33.964 59.4715 33.964C62.4856 33.964 63.8351 32.1171 63.8351 32.1171V32.8829C63.8351 33.2432 64.1051 33.5135 64.4649 33.5135H68.1088V16.5766C68.1088 16.5766 64.7798 16.5766 64.4649 16.5766C64.1051 16.5766 63.8351 16.8919 63.8351 17.2072ZM63.8351 28.0631C63.1603 29.0541 61.8108 29.9099 60.1913 29.9099C57.3122 29.9099 55.1079 28.1081 55.1079 25.045C55.1079 21.982 57.3122 20.1802 60.1913 20.1802C61.7658 20.1802 63.2053 21.0811 63.8351 22.027V28.0631ZM70.808 16.5766H75.1266V33.5135H70.808V16.5766ZM135.318 16.1261C132.349 16.1261 130.954 17.9279 130.954 17.9279V8.42342H126.636V33.5135C126.636 33.5135 129.964 33.5135 130.279 33.5135C130.639 33.5135 130.909 33.1982 130.909 32.8829V32.1171C130.909 32.1171 132.304 33.964 135.273 33.964C140.176 33.964 144 30.1802 144 25.045C144 19.9099 140.176 16.1261 135.318 16.1261ZM134.598 29.8649C132.934 29.8649 131.629 29.009 130.954 28.018V21.982C131.629 21.0811 133.069 20.1351 134.598 20.1351C137.477 20.1351 139.681 21.9369 139.681 25C139.681 28.0631 137.477 29.8649 134.598 29.8649ZM124.386 23.4685V33.5586H120.068V23.964C120.068 21.1712 119.168 20.045 116.739 20.045C115.434 20.045 114.084 20.7207 113.23 21.7117V33.5135H108.911V16.5766H112.33C112.69 16.5766 112.96 16.8919 112.96 17.2072V17.9279C114.219 16.6216 115.884 16.1261 117.548 16.1261C119.438 16.1261 121.012 16.6667 122.272 17.7477C123.801 19.009 124.386 20.6306 124.386 23.4685ZM98.4293 16.1261C95.4603 16.1261 94.0657 17.9279 94.0657 17.9279V8.42342H89.747V33.5135C89.747 33.5135 93.076 33.5135 93.3909 33.5135C93.7508 33.5135 94.0207 33.1982 94.0207 32.8829V32.1171C94.0207 32.1171 95.4153 33.964 98.3843 33.964C103.288 33.964 107.112 30.1802 107.112 25.045C107.157 19.9099 103.333 16.1261 98.4293 16.1261ZM97.7096 29.8649C96.0451 29.8649 94.7405 29.009 94.0657 28.018V21.982C94.7405 21.0811 96.18 20.1351 97.7096 20.1351C100.589 20.1351 102.793 21.9369 102.793 25C102.793 28.0631 100.589 29.8649 97.7096 29.8649ZM86.0132 16.1261C87.3178 16.1261 87.9926 16.3514 87.9926 16.3514V20.3604C87.9926 20.3604 84.3937 19.1441 82.1444 21.7117V33.5586H77.8258V16.5766C77.8258 16.5766 81.1547 16.5766 81.4696 16.5766C81.8295 16.5766 82.0994 16.8919 82.0994 17.2072V17.9279C82.9092 16.982 84.6636 16.1261 86.0132 16.1261ZM41.1622 31.982C40.9373 31.4414 40.7124 30.8559 40.4874 30.3604C40.1275 29.5496 39.7677 28.7838 39.4528 28.0631L39.4078 28.018C36.3037 21.2613 32.9748 14.4144 29.4659 7.65766L29.3309 7.38739C28.971 6.71171 28.6111 5.99099 28.2513 5.27027C27.8014 4.45946 27.3515 3.6036 26.6318 2.79279C25.1922 0.990991 23.1229 0 20.9186 0C18.6693 0 16.6449 0.990991 15.1604 2.7027C14.4856 3.51351 13.9907 4.36937 13.5409 5.18018C13.181 5.9009 12.8211 6.62162 12.4612 7.2973L12.3262 7.56757C8.86232 14.3243 5.48837 21.1712 2.38434 27.9279L2.33936 28.018C2.02445 28.7387 1.66457 29.5045 1.30468 30.3153C1.07975 30.8108 0.85482 31.3514 0.62989 31.9369C0.0450727 33.6036 -0.134871 35.1802 0.0900586 36.8018C0.584904 40.1802 2.8342 43.018 5.93823 44.2793C7.10787 44.7748 8.32249 45 9.58209 45C9.94198 45 10.3918 44.955 10.7517 44.9099C12.2363 44.7297 13.7658 44.2342 15.2503 43.3784C17.0947 42.3423 18.8492 40.8559 20.8286 38.6937C22.808 40.8559 24.6074 42.3423 26.4068 43.3784C27.8914 44.2342 29.4209 44.7297 30.9054 44.9099C31.2653 44.955 31.7152 45 32.0751 45C33.3347 45 34.5943 44.7748 35.7189 44.2793C38.8679 43.018 41.0723 40.1351 41.5671 36.8018C41.927 35.2252 41.747 33.6486 41.1622 31.982ZM20.8736 34.3243C18.4443 31.2613 16.8698 28.3784 16.33 25.9459C16.1051 24.9099 16.0601 24.009 16.195 23.1982C16.285 22.4775 16.5549 21.8468 16.9148 21.3063C17.7695 20.0901 19.2091 19.3243 20.8736 19.3243C22.538 19.3243 24.0226 20.045 24.8323 21.3063C25.1922 21.8468 25.4621 22.4775 25.5521 23.1982C25.6871 24.009 25.6421 24.955 25.4171 25.9459C24.8773 28.3333 23.3028 31.2162 20.8736 34.3243ZM38.823 36.4414C38.5081 38.7838 36.9335 40.8108 34.7292 41.7117C33.6496 42.1622 32.4799 42.2973 31.3103 42.1622C30.1857 42.027 29.061 41.6667 27.8914 40.991C26.2719 40.0901 24.6524 38.6937 22.763 36.6216C25.732 32.973 27.5315 29.6396 28.2063 26.6667C28.5212 25.2703 28.5662 24.009 28.4312 22.8378C28.2513 21.7117 27.8464 20.6757 27.2166 19.7748C25.822 17.7477 23.4828 16.5766 20.8736 16.5766C18.2644 16.5766 15.9251 17.7928 14.5305 19.7748C13.9007 20.6757 13.4959 21.7117 13.3159 22.8378C13.136 24.009 13.181 25.3153 13.5409 26.6667C14.2156 29.6396 16.0601 33.018 18.9842 36.6667C17.1397 38.7387 15.4753 40.1351 13.8558 41.036C12.6861 41.7117 11.5615 42.0721 10.4368 42.2072C9.22221 42.3423 8.05257 42.1622 7.01789 41.7568C4.81358 40.8559 3.23907 38.8288 2.92417 36.4865C2.78922 35.3604 2.87919 34.2342 3.32905 32.973C3.464 32.5225 3.68893 32.0721 3.91386 31.5315C4.22877 30.8108 4.58865 30.045 4.94854 29.2793L4.99353 29.1892C8.09756 22.4775 11.4265 15.6306 14.8904 8.96396L15.0254 8.69369C15.3853 8.01802 15.7452 7.2973 16.1051 6.62162C16.4649 5.9009 16.8698 5.22523 17.3647 4.63964C18.3094 3.55856 19.569 2.97297 20.9635 2.97297C22.3581 2.97297 23.6177 3.55856 24.5624 4.63964C25.0573 5.22523 25.4621 5.9009 25.822 6.62162C26.1819 7.2973 26.5418 8.01802 26.9017 8.69369L27.0366 8.96396C30.4556 15.6757 33.7845 22.5225 36.8886 29.2342V29.2793C37.2484 30 37.5634 30.8108 37.9232 31.5315C38.1482 32.0721 38.3731 32.5225 38.5081 32.973C38.8679 34.1441 39.0029 35.2703 38.823 36.4414Z" fill="#FF5B67"/>
</g>
<defs>
<clipPath id="clip0_1_1336">
<rect width="144" height="45" fill="white"/>
</clipPath>
</defs>
</svg>
