<svg width="113" height="34" viewBox="0 0 113 34" fill="none" xmlns="http://www.w3.org/2000/svg">
<g clip-path="url(#clip0_1_1297)">
<path fill-rule="evenodd" clip-rule="evenodd" d="M71.0683 26.343C64.5831 31.112 55.1831 33.6564 47.0899 33.6564C35.7419 33.6564 25.5258 29.469 17.7969 22.5045C17.1897 21.9569 17.7337 21.2104 18.4624 21.637C26.8034 26.4786 37.1167 29.3915 47.77 29.3915C54.9548 29.3915 62.8586 27.9084 70.1259 24.8308C71.2238 24.3655 72.142 25.5481 71.0683 26.343Z" fill="#FF9900"/>
<path fill-rule="evenodd" clip-rule="evenodd" d="M73.7654 23.2651C72.9396 22.2086 68.2858 22.766 66.1969 23.0131C65.5605 23.0906 65.4633 22.5381 66.0365 22.1406C69.7431 19.5381 75.8251 20.2893 76.5343 21.1617C77.2436 22.0389 76.3497 28.1214 72.8667 31.0244C72.3322 31.4703 71.8222 31.2329 72.0602 30.6416C72.8424 28.6932 74.596 24.3265 73.7654 23.2651Z" fill="#FF9900"/>
<path fill-rule="evenodd" clip-rule="evenodd" d="M66.3414 3.76825V1.23837C66.3414 0.855463 66.6329 0.598633 66.9826 0.598633H78.3354C78.6998 0.598633 78.9913 0.860344 78.9913 1.23837V3.40476C78.9864 3.76825 78.6804 4.24328 78.1363 4.99445L72.2534 13.3742C74.4394 13.3208 76.747 13.6456 78.729 14.7603C79.1759 15.0123 79.2973 15.3807 79.3314 15.7441V18.4437C79.3314 18.812 78.9233 19.2434 78.4958 19.0204C75.003 17.1932 70.3636 16.9945 66.5017 19.0398C66.1082 19.253 65.6953 18.8265 65.6953 18.4582V15.8944C65.6953 15.4824 65.7002 14.7797 66.1131 14.1544L72.9288 4.40321H66.9972C66.6329 4.40321 66.3414 4.14628 66.3414 3.76825Z" fill="#1F2321"/>
<path fill-rule="evenodd" clip-rule="evenodd" d="M24.9302 19.5531H21.4763C21.1459 19.5288 20.8836 19.2815 20.8594 18.9666V1.28144C20.8594 0.927717 21.1557 0.646586 21.5248 0.646586H24.7457C25.0809 0.661125 25.348 0.917955 25.3724 1.23782V3.54972H25.4355C26.2759 1.31541 27.8547 0.273438 29.9824 0.273438C32.1442 0.273438 33.4947 1.31541 34.4663 3.54972C35.3018 1.31541 37.2012 0.273438 39.2367 0.273438C40.6843 0.273438 42.2679 0.869559 43.2347 2.2072C44.3278 3.69511 44.1042 5.85662 44.1042 7.75163L44.0994 18.9134C44.0994 19.267 43.8031 19.5531 43.4338 19.5531H39.9848C39.6399 19.5288 39.3629 19.2525 39.3629 18.9134V9.54C39.3629 8.7937 39.431 6.93254 39.2658 6.22498C39.0084 5.03762 38.236 4.70311 37.2352 4.70311C36.3997 4.70311 35.5253 5.2605 35.1707 6.15229C34.816 7.04407 34.8499 8.53677 34.8499 9.54V18.9134C34.8499 19.267 34.5537 19.5531 34.1845 19.5531H30.7354C30.3856 19.5288 30.1136 19.2525 30.1136 18.9134L30.1087 9.54C30.1087 7.5675 30.4342 4.66438 27.981 4.66438C25.4986 4.66438 25.5959 7.49481 25.5959 9.54V18.9134C25.5959 19.267 25.2995 19.5531 24.9302 19.5531Z" fill="#1F2321"/>
<path fill-rule="evenodd" clip-rule="evenodd" d="M88.7648 0.273438C93.8896 0.273438 96.6635 4.66438 96.6635 10.2477C96.6635 15.6418 93.5981 19.9213 88.7648 19.9213C83.732 19.9213 80.9922 15.5304 80.9922 10.0586C80.9922 4.55294 83.7661 0.273438 88.7648 0.273438ZM88.7939 3.88412C86.2485 3.88412 86.0881 7.34453 86.0881 9.50126C86.0881 11.6628 86.054 16.2768 88.7648 16.2768C91.4413 16.2768 91.5677 12.5546 91.5677 10.2864C91.5677 8.79371 91.505 7.01012 91.053 5.59491C90.6642 4.36393 89.8918 3.88412 88.7939 3.88412Z" fill="#1F2321"/>
<path fill-rule="evenodd" clip-rule="evenodd" d="M103.309 19.5531H99.8701C99.5257 19.5288 99.2486 19.2525 99.2486 18.9134L99.2441 1.22328C99.2728 0.898638 99.5598 0.646586 99.9096 0.646586H103.11C103.412 0.661125 103.659 0.864678 103.727 1.14093V3.84528H103.791C104.757 1.42684 106.112 0.273438 108.498 0.273438C110.047 0.273438 111.558 0.830719 112.53 2.35747C113.434 3.77259 113.434 6.15229 113.434 7.86307V18.9957C113.395 19.3059 113.107 19.5531 112.768 19.5531H109.305C108.988 19.5288 108.726 19.2961 108.693 18.9957V9.38978C108.693 7.45597 108.916 4.62564 106.53 4.62564C105.691 4.62564 104.918 5.1878 104.534 6.04085C104.048 7.12155 103.986 8.19758 103.986 9.38978V18.9134C103.98 19.267 103.679 19.5531 103.309 19.5531Z" fill="#1F2321"/>
<path fill-rule="evenodd" clip-rule="evenodd" d="M57.2924 11.1061C57.2924 12.4487 57.3264 13.5681 56.6463 14.7606C56.0974 15.7298 55.223 16.3259 54.2562 16.3259C52.9301 16.3259 52.1528 15.3178 52.1528 13.8299C52.1528 10.8929 54.7906 10.3598 57.2924 10.3598V11.1061ZM60.7756 19.5053C60.5472 19.7088 60.2169 19.7234 59.9595 19.5877C58.813 18.6377 58.604 18.1967 57.9773 17.2904C56.0828 19.2193 54.7372 19.796 52.2839 19.796C49.3742 19.796 47.1152 18.0077 47.1152 14.4261C47.1152 11.6296 48.6309 9.7249 50.7974 8.79434C52.6726 7.97047 55.291 7.82508 57.2924 7.59723V7.15138C57.2924 6.33229 57.3555 5.36302 56.8697 4.65546C56.452 4.0205 55.6456 3.75879 54.9315 3.75879C53.615 3.75879 52.4444 4.43249 52.1576 5.82828C52.0993 6.1385 51.8711 6.44383 51.5552 6.45836L48.2083 6.09966C47.9264 6.03672 47.6107 5.80887 47.6932 5.37756C48.4607 1.32581 52.1334 0.104492 55.4173 0.104492C57.0982 0.104492 59.2939 0.550337 60.6201 1.82016C62.3009 3.38564 62.1406 5.47446 62.1406 7.7475V13.1175C62.1406 14.7315 62.8109 15.439 63.4425 16.3114C63.6611 16.6216 63.7097 16.9947 63.428 17.2274C62.7235 17.8139 61.4702 18.9043 60.7803 19.5149L60.7756 19.5053Z" fill="#1F2321"/>
<path fill-rule="evenodd" clip-rule="evenodd" d="M12.0131 11.1061C12.0131 12.4487 12.0471 13.5681 11.3671 14.7605C10.8181 15.7298 9.94857 16.3259 8.97701 16.3259C7.6508 16.3259 6.87841 15.3178 6.87841 13.8299C6.87841 10.8929 9.51622 10.3598 12.0131 10.3598V11.1061ZM15.4962 19.5053C15.268 19.7088 14.9376 19.7234 14.6801 19.5877C13.5336 18.6377 13.3296 18.1966 12.6981 17.2904C10.8036 19.2193 9.46279 19.796 7.00471 19.796C4.0997 19.796 1.83594 18.0077 1.83594 14.426C1.83594 11.6295 3.35645 9.7249 5.5182 8.79434C7.39334 7.97047 10.0117 7.82508 12.0131 7.59723V7.15138C12.0131 6.33229 12.0763 5.36302 11.5954 4.65536C11.1727 4.0205 10.3664 3.75879 9.65711 3.75879C8.34063 3.75879 7.16502 4.43249 6.87841 5.82828C6.82012 6.1385 6.59179 6.44383 6.28088 6.45836L2.92896 6.09966C2.6472 6.03672 2.33629 5.80887 2.41402 5.37756C3.18643 1.32581 6.85411 0.104492 10.1381 0.104492C11.8189 0.104492 14.0146 0.550337 15.3408 1.82016C17.0215 3.38564 16.8613 5.47446 16.8613 7.7475V13.1175C16.8613 14.7314 17.5318 15.439 18.1632 16.3114C18.3867 16.6216 18.4353 16.9947 18.1535 17.2274C17.4492 17.8139 16.1958 18.9043 15.5059 19.5149L15.4962 19.5053Z" fill="#1F2321"/>
</g>
<defs>
<clipPath id="clip0_1_1297">
<rect width="113" height="34" fill="white"/>
</clipPath>
</defs>
</svg>
