<svg width="131" height="44" viewBox="0 0 131 44" fill="none" xmlns="http://www.w3.org/2000/svg">
<g clip-path="url(#clip0_1_1306)">
<path d="M57.6162 22.9703C57.6162 29.1341 52.7886 33.6761 46.8638 33.6761C40.9391 33.6761 36.1113 29.1341 36.1113 22.9703C36.1113 16.7632 40.9391 12.2646 46.8638 12.2646C52.7886 12.2646 57.6162 16.7632 57.6162 22.9703ZM52.9094 22.9703C52.9094 19.1186 50.1113 16.4832 46.8638 16.4832C43.6164 16.4832 40.8183 19.1186 40.8183 22.9703C40.8183 26.7835 43.6164 29.4575 46.8638 29.4575C50.1113 29.4575 52.9094 26.7786 52.9094 22.9703Z" fill="#EB4534"/>
<path d="M80.8135 22.9703C80.8135 29.1341 75.9857 33.6761 70.061 33.6761C64.1364 33.6761 59.3086 29.1341 59.3086 22.9703C59.3086 16.768 64.1364 12.2646 70.061 12.2646C75.9857 12.2646 80.8135 16.7632 80.8135 22.9703ZM76.1066 22.9703C76.1066 19.1186 73.3086 16.4832 70.061 16.4832C66.8135 16.4832 64.0154 19.1186 64.0154 22.9703C64.0154 26.7835 66.8135 29.4575 70.061 29.4575C73.3086 29.4575 76.1066 26.7786 76.1066 22.9703Z" fill="#FBBF02"/>
<path d="M103.044 12.9114V32.1315C103.044 40.0377 98.3758 43.2668 92.857 43.2668C87.662 43.2668 84.5354 39.7964 83.3563 36.9583L87.4543 35.2544C88.1839 36.9968 89.972 39.053 92.8523 39.053C96.3849 39.053 98.574 36.8762 98.574 32.7783V31.2386H98.4097C97.3561 32.537 95.3264 33.6712 92.7652 33.6712C87.4059 33.6712 82.4961 29.0086 82.4961 23.009C82.4961 16.9659 87.4059 12.2646 92.7652 12.2646C95.3217 12.2646 97.3514 13.3989 98.4097 14.6587H98.574V12.9163H103.044V12.9114ZM98.9074 23.009C98.9074 19.2392 96.3896 16.4832 93.1857 16.4832C89.9382 16.4832 87.2174 19.2392 87.2174 23.009C87.2174 26.7401 89.9382 29.4575 93.1857 29.4575C96.3896 29.4575 98.9074 26.7401 98.9074 23.009Z" fill="#4186F3"/>
<path d="M110.411 1.64551V33.0193H105.82V1.64551H110.411Z" fill="#33AA52"/>
<path d="M128.302 26.4929L131.956 28.9255C130.777 30.668 127.936 33.6702 123.025 33.6702C116.936 33.6702 112.389 28.9691 112.389 22.9646C112.389 16.5981 116.975 12.2588 122.499 12.2588C128.061 12.2588 130.782 16.6801 131.671 19.0694L132.159 20.2857L117.83 26.2129C118.927 28.3608 120.633 29.4565 123.025 29.4565C125.422 29.4565 127.085 28.2788 128.302 26.4929ZM117.057 22.6412L126.635 18.6688C126.109 17.3318 124.524 16.4002 122.658 16.4002C120.266 16.4002 116.936 18.5095 117.057 22.6412Z" fill="#EC4436"/>
<path d="M18.7337 20.1844V15.6425H34.0577C34.2075 16.4341 34.2848 17.3705 34.2848 18.3841C34.2848 21.7918 33.3521 26.0055 30.3463 29.0077C27.4226 32.0485 23.687 33.6704 18.7384 33.6704C9.56628 33.6704 1.85352 26.2082 1.85352 17.0471C1.85352 7.88598 9.56628 0.423828 18.7384 0.423828C23.8127 0.423828 27.4275 2.41244 30.1433 5.00444L26.9345 8.20938C24.987 6.38489 22.3484 4.96577 18.7337 4.96577C12.0357 4.96577 6.79722 10.3573 6.79722 17.0471C6.79722 23.7369 12.0357 29.1285 18.7337 29.1285C23.0781 29.1285 25.5524 27.3859 27.1375 25.8027C28.4229 24.5189 29.2686 22.6848 29.6021 20.1797L18.7337 20.1844Z" fill="#4186F3"/>
</g>
<defs>
<clipPath id="clip0_1_1306">
<rect width="131" height="44" fill="white"/>
</clipPath>
</defs>
</svg>
