<svg width="50" height="50" viewBox="0 0 50 50" fill="none" xmlns="http://www.w3.org/2000/svg">
<rect width="50" height="50" rx="8" fill="#F8F8F8"/>
<path d="M29.6168 14H20.3942C16.3882 14 14 16.387 14 20.391V29.598C14 33.613 16.3882 36 20.3942 36H29.6058C33.6118 36 36 33.613 36 29.609V20.391C36.011 16.387 33.6228 14 29.6168 14ZM25.0055 29.268C22.6503 29.268 20.7354 27.354 20.7354 25C20.7354 22.646 22.6503 20.732 25.0055 20.732C27.3607 20.732 29.2756 22.646 29.2756 25C29.2756 27.354 27.3607 29.268 25.0055 29.268ZM31.5207 19.368C31.4657 19.5 31.3887 19.621 31.2896 19.731C31.1796 19.83 31.0585 19.907 30.9264 19.962C30.7944 20.017 30.6513 20.05 30.5082 20.05C30.2111 20.05 29.9359 19.94 29.7268 19.731C29.6278 19.621 29.5507 19.5 29.4957 19.368C29.4407 19.236 29.4077 19.093 29.4077 18.95C29.4077 18.807 29.4407 18.664 29.4957 18.532C29.5507 18.389 29.6278 18.279 29.7268 18.169C29.98 17.916 30.3652 17.795 30.7173 17.872C30.7944 17.883 30.8604 17.905 30.9264 17.938C30.9925 17.96 31.0585 17.993 31.1245 18.037C31.1796 18.07 31.2346 18.125 31.2896 18.169C31.3887 18.279 31.4657 18.389 31.5207 18.532C31.5758 18.664 31.6088 18.807 31.6088 18.95C31.6088 19.093 31.5758 19.236 31.5207 19.368Z" fill="#1F2321"/>
</svg>
