<svg width="56" height="44" viewBox="0 0 56 44" fill="none" xmlns="http://www.w3.org/2000/svg">
<g clip-path="url(#clip0_1_1339)">
<path d="M10.914 38.7129H11.778L13.2467 41.1477L14.7011 38.7129H15.5651L15.7954 43.8707H14.9027L14.7299 40.2977L13.4483 42.4012H13.0019L11.706 40.3409L11.5476 43.8707H10.6836L10.914 38.7129Z" fill="#1F2321"/>
<path d="M20.6338 41.7528L19.9858 39.7502L19.3234 41.7528H20.6338ZM19.525 38.7129H20.4754L22.3329 43.8707H21.2962L20.8642 42.5596H19.0354L18.6034 43.8707H17.6387L19.525 38.7129Z" fill="#1F2321"/>
<path d="M26.1637 41.0325C26.3941 41.0325 26.5813 40.9604 26.7109 40.8164C26.8405 40.6723 26.9125 40.4994 26.9125 40.2833C26.9125 40.0672 26.8405 39.8799 26.7109 39.7358C26.5669 39.5917 26.3941 39.5341 26.1781 39.5341H25.1989V41.0325H26.1637ZM24.2917 38.7129H26.1493C26.4517 38.7129 26.7253 38.7561 26.9413 38.857C27.1573 38.9578 27.3301 39.0731 27.4597 39.2316C27.5892 39.39 27.69 39.5485 27.7476 39.7358C27.8052 39.9231 27.834 40.096 27.834 40.2545C27.834 40.5714 27.762 40.874 27.6324 41.1189C27.5028 41.3638 27.2869 41.5655 27.0133 41.724L28.1508 43.8851H27.0997L26.1061 41.8537H25.1701V43.8851H24.2773V38.7129H24.2917Z" fill="#1F2321"/>
<path d="M32.1115 41.0325C32.3418 41.0325 32.529 40.9604 32.6586 40.8164C32.7882 40.6723 32.8602 40.4994 32.8602 40.2833C32.8602 40.0672 32.7882 39.8799 32.6586 39.7358C32.5146 39.5917 32.3418 39.5341 32.1259 39.5341H31.1467V41.0325H32.1115ZM30.2539 38.7129H32.1115C32.4138 38.7129 32.6874 38.7561 32.9034 38.857C33.1194 38.9578 33.2922 39.0731 33.4218 39.2316C33.5514 39.39 33.6522 39.5485 33.7098 39.7358C33.7674 39.9231 33.7962 40.096 33.7962 40.2545C33.7962 40.5714 33.7242 40.874 33.5946 41.1189C33.465 41.3638 33.249 41.5655 32.9754 41.724L34.113 43.8851H33.0618L32.0683 41.8537H31.1467V43.8851H30.2539V38.7129Z" fill="#1F2321"/>
<path d="M37.3532 38.7129H36.4316V43.8707H37.3532V38.7129Z" fill="#1F2321"/>
<path d="M42.1471 43.092C42.3919 43.092 42.6079 43.0488 42.8095 42.9479C43.0111 42.8471 43.1695 42.7174 43.3135 42.5445C43.4575 42.3717 43.5583 42.1844 43.6303 41.9538C43.7023 41.7377 43.7455 41.5072 43.7455 41.2623C43.7455 41.0174 43.7023 40.7868 43.6303 40.5563C43.5583 40.3402 43.4575 40.1385 43.3135 39.98C43.1695 39.8071 43.0111 39.6775 42.8095 39.591C42.6079 39.4902 42.3919 39.447 42.1471 39.447C41.9023 39.447 41.6863 39.4902 41.4847 39.591C41.2975 39.6919 41.1247 39.8216 40.9951 39.98C40.8512 40.1385 40.7504 40.3402 40.6784 40.5563C40.6064 40.7724 40.5632 41.003 40.5632 41.2623C40.5632 41.5072 40.6064 41.7377 40.6784 41.9538C40.7504 42.17 40.8512 42.3717 40.9951 42.5445C41.1391 42.7174 41.2975 42.8471 41.4847 42.9479C41.6863 43.0344 41.9023 43.092 42.1471 43.092ZM42.1471 43.9997C41.7871 43.9997 41.4559 43.9276 41.1391 43.7836C40.8368 43.6395 40.5632 43.4522 40.3328 43.2073C40.1024 42.9624 39.9152 42.6742 39.7856 42.3428C39.656 42.0115 39.584 41.6657 39.584 41.2767C39.584 40.9021 39.656 40.5419 39.7856 40.2106C39.9152 39.8792 40.1024 39.591 40.3328 39.3461C40.5632 39.1012 40.8224 38.9139 41.1391 38.7698C41.4559 38.6257 41.7871 38.5537 42.1471 38.5537C42.5071 38.5537 42.8383 38.6257 43.1551 38.7698C43.4575 38.9139 43.7311 39.1012 43.9615 39.3461C44.1919 39.591 44.379 39.8792 44.5086 40.2106C44.6382 40.5419 44.7102 40.8877 44.7102 41.2767C44.7102 41.6513 44.6382 42.0115 44.5086 42.3428C44.379 42.6742 44.1919 42.9624 43.9615 43.2073C43.7311 43.4522 43.4575 43.6539 43.1551 43.7836C42.8383 43.9276 42.5071 43.9997 42.1471 43.9997Z" fill="#1F2321"/>
<path d="M47.5759 39.5629H45.9199V38.7129H50.1678V39.5629H48.5118V43.8707H47.5759V39.5629Z" fill="#1F2321"/>
<path d="M53.4086 39.5629H51.7383V38.7129H56.0006V39.5629H54.3302V43.8707H53.4086V39.5629Z" fill="#1F2321"/>
<path d="M35.7686 33.5547H44.0483L30.1959 0.533071L23.2409 3.90439L28.0792 15.4014L25.8329 20.7466L17.1643 0L10.1373 3.21284L15.7819 16.4676L15.7531 16.5252C12.2684 24.8959 8.00617 27.1866 7.58858 27.3451C6.59501 27.7485 5.52944 27.979 4.40627 27.979C4.06068 27.979 3.72949 27.9646 3.3983 27.9214L0 35.2115C1.12317 35.8599 2.39033 36.2344 3.72949 36.2344C5.42864 36.2344 6.9838 35.6437 8.27976 34.6641L8.26536 34.6929C8.26536 34.6929 11.4765 33.0648 14.918 24.1467C14.918 24.1323 16.1851 21.294 16.8619 19.4787L16.9339 19.277L22.9817 33.5691H31.2471L26.9848 23.5128L29.2456 18.1677L35.7686 33.5547Z" fill="#A1072B"/>
</g>
<defs>
<clipPath id="clip0_1_1339">
<rect width="56" height="44" fill="white"/>
</clipPath>
</defs>
</svg>
