<svg width="144" height="40" viewBox="0 0 144 40" fill="none" xmlns="http://www.w3.org/2000/svg">
<g clip-path="url(#clip0_1_1327)">
<path d="M44.8398 19.2299C44.8398 25.7699 48.9402 30.3299 54.6221 30.3299C60.304 30.3299 64.4043 25.7699 64.4043 19.2299C64.4043 12.6899 60.304 8.12988 54.6221 8.12988C48.9402 8.12988 44.8398 12.6899 44.8398 19.2299ZM60.6554 19.2299C60.6554 23.9099 58.1659 26.9399 54.6221 26.9399C51.0782 26.9399 48.5887 23.9099 48.5887 19.2299C48.5887 14.5499 51.0782 11.5199 54.6221 11.5199C58.1659 11.5199 60.6554 14.5499 60.6554 19.2299Z" fill="#1F2321"/>
<path d="M74.9625 30.3302C79.2678 30.3302 81.728 26.6102 81.728 22.1402C81.728 17.6702 79.2678 13.9502 74.9625 13.9502C72.9709 13.9502 71.5065 14.7602 70.54 15.9302V14.2502H67.0254V35.4002H70.54V28.3502C71.5065 29.5202 72.9709 30.3302 74.9625 30.3302ZM70.4521 21.6902C70.4521 18.7202 72.0922 17.1002 74.2596 17.1002C76.8076 17.1002 78.1842 19.1402 78.1842 22.1402C78.1842 25.1402 76.8076 27.1802 74.2596 27.1802C72.0922 27.1802 70.4521 25.5302 70.4521 22.6202V21.6902Z" fill="#1F2321"/>
<path d="M91.238 30.3302C94.3133 30.3302 96.7442 28.6802 97.8278 25.9202L94.8112 24.7502C94.3425 26.3702 92.966 27.2702 91.238 27.2702C88.9828 27.2702 87.4013 25.6202 87.1377 22.9202H97.9157V21.7202C97.9157 17.4002 95.5434 13.9502 91.0916 13.9502C86.6398 13.9502 83.7695 17.5202 83.7695 22.1402C83.7695 27.0002 86.8448 30.3302 91.238 30.3302ZM91.0623 16.9802C93.2882 16.9802 94.3425 18.4802 94.3718 20.2202H87.3134C87.8406 18.0902 89.2464 16.9802 91.0623 16.9802Z" fill="#1F2321"/>
<path d="M100.553 30.0002H104.067V20.7602C104.067 18.5102 105.678 17.3102 107.26 17.3102C109.193 17.3102 109.954 18.7202 109.954 20.6702V30.0002H113.469V19.6202C113.469 16.2302 111.536 13.9502 108.314 13.9502C106.323 13.9502 104.946 14.8802 104.067 15.9302V14.2502H100.553V30.0002Z" fill="#1F2321"/>
<path d="M123.763 8.45996L115.797 30H119.516L121.303 25.08H130.382L132.198 30H135.976L128.01 8.45996H123.763ZM125.813 12.72L129.152 21.72H122.533L125.813 12.72Z" fill="#1F2321"/>
<path d="M142.011 8.52246H138.262V30.0625H142.011V8.52246Z" fill="#1F2321"/>
<path d="M36.2515 16.3714C37.1375 13.6477 36.8324 10.6639 35.4156 8.18644C33.2848 4.38644 29.0015 2.43144 24.8181 3.35144C22.9571 1.20394 20.2834 -0.0173145 17.4802 0.000185529C13.2042 -0.00981447 9.41014 2.81019 8.09461 6.97769C5.34763 7.55394 2.97651 9.31519 1.58898 11.8114C-0.557593 15.6014 -0.0682368 20.3789 2.79956 23.6289C1.91359 26.3527 2.21868 29.3364 3.63549 31.8139C5.7662 35.6139 10.0496 37.5689 14.2329 36.6489C16.0927 38.7964 18.7677 40.0177 21.5708 39.9989C25.8493 40.0102 29.6446 37.1877 30.9601 33.0164C33.7071 32.4402 36.0782 30.6789 37.4657 28.1827C39.6099 24.3927 39.1193 19.6189 36.2527 16.3689L36.2515 16.3714ZM21.5733 37.3852C19.8611 37.3877 18.2027 36.7739 16.8884 35.6502C16.9482 35.6177 17.0519 35.5589 17.119 35.5164L24.895 30.9164C25.2928 30.6852 25.5369 30.2514 25.5345 29.7827V18.5539L28.8208 20.4977C28.8562 20.5152 28.8794 20.5502 28.8843 20.5902V29.8889C28.8794 34.0239 25.6101 37.3764 21.5733 37.3852ZM5.85041 30.5064C4.99251 28.9889 4.68376 27.2102 4.97787 25.4839C5.03522 25.5189 5.13651 25.5827 5.20851 25.6252L12.9845 30.2252C13.3787 30.4614 13.8668 30.4614 14.2622 30.2252L23.7552 24.6102V28.4977C23.7577 28.5377 23.7394 28.5764 23.7088 28.6014L15.8486 33.2502C12.3475 35.3152 7.87617 34.0877 5.85163 30.5064H5.85041ZM3.8039 13.1202C4.65814 11.6002 6.00661 10.4377 7.61258 9.83394C7.61258 9.90269 7.60892 10.0239 7.60892 10.1089V19.3102C7.60647 19.7777 7.85054 20.2114 8.24715 20.4427L17.7402 26.0564L14.4538 28.0002C14.4208 28.0227 14.3794 28.0264 14.3427 28.0102L6.48132 23.3577C2.98749 21.2852 1.78912 16.7064 3.80268 13.1214L3.8039 13.1202ZM30.8051 19.5564L21.3121 13.9414L24.5985 11.9989C24.6314 11.9764 24.6729 11.9727 24.7095 11.9889L32.5709 16.6377C36.0709 18.7089 37.2705 23.2952 35.2484 26.8802C34.3929 28.3977 33.0457 29.5602 31.4409 30.1652V20.6889C31.4446 20.2214 31.2017 19.7889 30.8063 19.5564H30.8051ZM34.0756 14.5139C34.0183 14.4777 33.917 14.4152 33.845 14.3727L26.069 9.77269C25.6748 9.53644 25.1867 9.53644 24.7913 9.77269L15.2983 15.3877V11.5002C15.2958 11.4602 15.3141 11.4214 15.3446 11.3964L23.2048 6.75144C26.706 4.68269 31.1822 5.91394 33.2006 9.50144C34.0537 11.0164 34.3624 12.7902 34.0732 14.5139H34.0756ZM13.5117 21.4427L10.2241 19.4989C10.1887 19.4814 10.1655 19.4464 10.1606 19.4064V10.1077C10.1631 5.96769 13.4421 2.61269 17.4839 2.61519C19.1936 2.61519 20.8484 3.23019 22.1627 4.35019C22.1029 4.38269 22.0004 4.44144 21.932 4.48394L14.156 9.08394C13.7582 9.31519 13.5141 9.74769 13.5166 10.2164L13.5117 21.4402V21.4427ZM15.2971 17.5002L19.5255 14.9989L23.754 17.4989V22.5002L19.5255 25.0002L15.2971 22.5002V17.5002Z" fill="#1F2321"/>
</g>
<defs>
<clipPath id="clip0_1_1327">
<rect width="144" height="40" fill="white"/>
</clipPath>
</defs>
</svg>
