<svg width="140" height="44" viewBox="0 0 140 44" fill="none" xmlns="http://www.w3.org/2000/svg">
<g clip-path="url(#clip0_1_1292)">
<path d="M31.1768 9.12102C31.154 8.91477 30.971 8.82311 30.8337 8.82311C30.6964 8.82311 27.6997 8.59394 27.6997 8.59394C27.6997 8.59394 25.618 6.50853 25.3664 6.30228C25.1376 6.07311 24.703 6.14186 24.52 6.18769C24.4971 6.18769 24.0625 6.32519 23.3533 6.55436C22.6442 4.51478 21.4317 2.65853 19.2585 2.65853H19.0527C18.4579 1.87936 17.6801 1.5127 17.0396 1.5127C12.0069 1.5127 9.58207 7.81478 8.82717 11.0231C6.85985 11.6419 5.46442 12.0544 5.30429 12.1231C4.20625 12.4669 4.18338 12.4898 4.04612 13.521C3.93174 14.3002 1.07227 36.4606 1.07227 36.4606L23.3304 40.6314L35.4089 38.0189C35.4317 37.9731 31.1997 9.32727 31.1768 9.12102ZM22.118 6.87519C21.569 7.03561 20.9056 7.24186 20.2422 7.47103V7.05852C20.2422 5.82102 20.0821 4.81269 19.7847 4.01061C20.9285 4.14811 21.6376 5.40853 22.118 6.87519ZM18.3893 4.26269C18.6866 5.04186 18.8925 6.14186 18.8925 7.65436V7.88352C17.6572 8.27311 16.3533 8.66269 15.0036 9.0981C15.7585 6.21061 17.1997 4.78978 18.3893 4.26269ZM16.9252 2.84186C17.154 2.84186 17.3827 2.93353 17.5657 3.07103C15.9415 3.82728 14.2259 5.72936 13.5167 9.57936C12.4415 9.92311 11.4121 10.221 10.4285 10.5419C11.252 7.60853 13.3108 2.84186 16.9252 2.84186Z" fill="#95BF47"/>
<path d="M30.8331 8.77748C30.6958 8.77748 27.6991 8.54831 27.6991 8.54831C27.6991 8.54831 25.6174 6.46289 25.3658 6.25664C25.2743 6.16498 25.1599 6.11914 25.0684 6.11914L23.3984 40.6316L35.4769 38.0191C35.4769 38.0191 31.2448 9.32748 31.222 9.12123C31.1305 8.91498 30.9703 8.82331 30.8331 8.77748Z" fill="#5E8E3E"/>
<path d="M19.258 15.4691L17.7939 19.892C17.7939 19.892 16.4671 19.1816 14.8887 19.1816C12.5325 19.1816 12.4181 20.6711 12.4181 21.0378C12.4181 23.0545 17.6796 23.8336 17.6796 28.5774C17.6796 32.3128 15.3233 34.7191 12.1436 34.7191C8.30047 34.7191 6.37891 32.3357 6.37891 32.3357L7.40832 28.9441C7.40832 28.9441 9.42139 30.6857 11.1142 30.6857C12.2351 30.6857 12.6926 29.8149 12.6926 29.1732C12.6926 26.5378 8.39198 26.4232 8.39198 22.0691C8.39198 18.4253 10.9998 14.8962 16.2841 14.8962C18.2515 14.8732 19.258 15.4691 19.258 15.4691Z" fill="white"/>
<path d="M49.5003 23.787C48.2879 23.1454 47.6702 22.5725 47.6702 21.8162C47.6702 20.8537 48.5395 20.235 49.8892 20.235C51.4676 20.235 52.8631 20.8766 52.8631 20.8766L53.9611 17.5079C53.9611 17.5079 52.9546 16.7287 49.9807 16.7287C45.8402 16.7287 42.9578 19.112 42.9578 22.4579C42.9578 24.36 44.3075 25.8037 46.0918 26.835C47.5559 27.637 48.0591 28.2329 48.0591 29.1037C48.0591 29.9975 47.3271 30.7308 45.9774 30.7308C43.9872 30.7308 42.0885 29.6995 42.0885 29.6995L40.9219 33.0683C40.9219 33.0683 42.6604 34.237 45.5885 34.237C49.8434 34.237 52.9317 32.1287 52.9317 28.3475C52.8859 26.285 51.3532 24.8641 49.5003 23.787ZM66.4742 16.6829C64.3696 16.6829 62.7225 17.6912 61.4644 19.2037L61.4186 19.1808L63.2487 9.64746H58.5134L53.8925 33.9391H58.6278L60.2062 25.6433C60.8238 22.5037 62.448 20.5558 63.9578 20.5558C65.033 20.5558 65.4447 21.2891 65.4447 22.3204C65.4447 22.962 65.399 23.787 65.2389 24.4287L63.4546 33.9391H68.1898L70.0428 24.1308C70.2487 23.0995 70.3859 21.862 70.3859 21.0141C70.363 18.287 68.9676 16.6829 66.4742 16.6829ZM81.0918 16.6829C75.3729 16.6829 71.5983 21.8391 71.5983 27.5912C71.5983 31.2579 73.8631 34.237 78.118 34.237C83.7225 34.237 87.497 29.2183 87.497 23.3287C87.5199 19.9141 85.5526 16.6829 81.0918 16.6829ZM78.7585 30.6162C77.1343 30.6162 76.4709 29.2412 76.4709 27.4995C76.4709 24.7725 77.8663 20.3495 80.4513 20.3495C82.1212 20.3495 82.6931 21.8162 82.6931 23.2141C82.6931 26.1245 81.2519 30.6162 78.7585 30.6162ZM99.6441 16.6829C96.4415 16.6829 94.6343 19.5245 94.6343 19.5245H94.5885L94.863 16.9808H90.6539C90.448 18.6995 90.0591 21.335 89.6931 23.2829L86.4219 40.6766H91.1572L92.484 33.6412H92.5983C92.5983 33.6412 93.582 34.26 95.3663 34.26C100.948 34.26 104.585 28.5308 104.585 22.7558C104.562 19.5475 103.121 16.6829 99.6441 16.6829ZM95.1147 30.662C93.8794 30.662 93.1474 29.9516 93.1474 29.9516L93.9251 25.5287C94.4742 22.5495 96.0297 20.6016 97.6768 20.6016C99.1408 20.6016 99.5755 21.9537 99.5755 23.2141C99.5983 26.285 97.7683 30.662 95.1147 30.662ZM111.334 9.87663C109.824 9.87663 108.611 11.0912 108.611 12.6266C108.611 14.0245 109.504 15.01 110.853 15.01H110.899C112.386 15.01 113.644 14.0016 113.667 12.26C113.69 10.862 112.752 9.87663 111.334 9.87663ZM104.7 33.9162H109.435L112.638 17.0495H107.879M124.716 17.0266H121.422L121.582 16.2475C121.857 14.6204 122.817 13.1995 124.419 13.1995C125.265 13.1995 125.928 13.4516 125.928 13.4516L126.843 9.71621C126.843 9.71621 126.043 9.30371 124.258 9.30371C122.589 9.30371 120.896 9.78496 119.615 10.885C117.99 12.26 117.236 14.2537 116.87 16.2704L116.732 17.0495H114.513L113.804 20.6475H116.023L113.507 33.9391H118.242L120.758 20.6475H124.03L124.716 17.0266ZM136.131 17.0495C136.131 17.0495 133.157 24.5433 131.853 28.6454H131.808C131.716 27.3162 130.641 17.0495 130.641 17.0495H125.654L128.513 32.4954C128.559 32.8391 128.536 33.0454 128.399 33.2745C127.85 34.3516 126.912 35.3829 125.814 36.1391C124.922 36.7808 123.915 37.2162 123.115 37.4912L124.441 41.5245C125.402 41.3183 127.415 40.5162 129.085 38.935C131.236 36.9183 133.249 33.7787 135.307 29.5162L141.095 17.0266H136.131V17.0495Z" fill="#1F2321"/>
</g>
<defs>
<clipPath id="clip0_1_1292">
<rect width="140" height="44" fill="white"/>
</clipPath>
</defs>
</svg>
