<svg width="176" height="36" viewBox="0 0 176 36" fill="none" xmlns="http://www.w3.org/2000/svg">
<path d="M65.4733 8.58623C63.8571 10.1843 63.0566 12.2212 63.0566 14.6811C63.0566 17.3291 63.8571 19.4756 65.4575 21.1051C67.0585 22.7346 69.1457 23.5494 71.7351 23.5494C72.5983 23.5337 73.4458 23.3927 74.2622 23.1576V19.2406C73.5398 19.4599 72.8021 19.5853 72.0493 19.6166C70.7619 19.6166 69.7424 19.1935 68.973 18.3319C68.2043 17.4701 67.812 16.2949 67.812 14.8221C67.812 13.4434 68.1884 12.3152 68.9572 11.4222C69.6637 10.5604 70.7308 10.0747 71.8449 10.0903C72.6612 10.0903 73.477 10.2157 74.2622 10.4351V6.50231C73.3988 6.28297 72.5044 6.17326 71.6094 6.18898C69.1456 6.18898 67.0902 6.98804 65.4733 8.58623ZM82.2969 6.18898C80.0528 6.18898 78.3109 6.92535 77.0553 8.41386C75.7996 9.90229 75.1719 11.9706 75.1877 14.6341C75.1877 17.5171 75.8155 19.7263 77.0553 21.2461C78.2951 22.7659 80.1157 23.5337 82.4854 23.5337C84.7764 23.5337 86.5497 22.7659 87.7894 21.2461C89.0292 19.7107 89.6576 17.5797 89.6576 14.8221C89.6576 12.0645 89.0292 9.93366 87.7585 8.44523C86.5188 6.94107 84.6983 6.18898 82.2969 6.18898ZM84.2273 18.7705C83.8191 19.4287 83.0815 19.8203 82.3128 19.789C81.5751 19.8046 80.8844 19.4129 80.5391 18.7705C80.1316 18.0968 79.9271 16.7336 79.9271 14.6811C79.9271 11.5005 80.7276 9.90229 82.3444 9.90229C84.0546 9.90229 84.9179 11.5161 84.9179 14.7282C84.9021 16.7493 84.6665 18.0811 84.2273 18.7705ZM101.663 6.65898L100.8 10.3567C100.581 11.3125 100.361 12.2839 100.172 13.2709L99.6862 15.8406C99.2148 13.2867 98.5873 10.2157 97.7862 6.6747H92.1525L90.0337 23.1576H94.2559L95.4012 11.7982L98.2885 23.1576H101.302L104.048 11.7982L105.241 23.1263H109.651L107.407 6.65898H101.663ZM121.877 6.65898L121.013 10.3567C120.793 11.3125 120.574 12.2839 120.385 13.2709L119.9 15.8406C119.428 13.2867 118.801 10.2157 118 6.6747H112.366L110.248 23.142H114.469L115.615 11.7825L118.502 23.142H121.515L124.277 11.7982L125.471 23.1263H129.88L127.636 6.65898H121.877ZM135.577 16.6083H139.547V13.177H135.577V10.153H140.144V6.65898H131.12V23.142H140.176V19.6166H135.577V16.6083ZM152.731 14.0074C153.985 12.0175 153.483 9.40095 151.6 8.0065C150.392 7.11339 148.728 6.65898 146.626 6.65898H141.431V23.142H145.888V15.6211H145.966L149.577 23.1263H154.284L150.721 15.6995C151.554 15.3549 152.26 14.7595 152.731 14.0074ZM145.888 13.7411V9.82395C146.939 9.85532 147.708 10.0277 148.163 10.3567C148.618 10.6858 148.854 11.2341 148.854 11.9862C148.854 13.1299 147.866 13.7097 145.888 13.7411ZM156.073 8.58623C154.457 10.1843 153.641 12.2212 153.641 14.6811C153.641 17.3291 154.441 19.4755 156.041 21.0895C157.643 22.7189 159.746 23.5337 162.319 23.5337C163.183 23.518 164.03 23.3927 164.861 23.1576V19.2406C164.14 19.4599 163.402 19.5853 162.649 19.6166C161.362 19.6166 160.342 19.1935 159.557 18.3319C158.788 17.4701 158.395 16.2949 158.395 14.8221C158.395 13.4434 158.772 12.3152 159.542 11.4222C160.248 10.5604 161.315 10.0747 162.429 10.0903C163.245 10.0903 164.061 10.2157 164.846 10.4351V6.50231C163.983 6.28297 163.088 6.17326 162.194 6.18898C159.73 6.18898 157.69 6.98804 156.073 8.58623ZM170.542 19.6009V16.6083H174.513V13.177H170.542V10.153H175.109V6.65898H166.085V23.142H175.141V19.6166H170.542V19.6009Z" fill="#1F2321"/>
<path fill-rule="evenodd" clip-rule="evenodd" d="M53.8292 0H5.53984C2.47959 0 0 2.47557 0 5.51519V23.9097C0 26.9493 2.47959 29.4249 5.52416 29.4249H28.4055L38.8732 35.2378L36.5035 29.4249H53.8292C56.8737 29.4249 59.3532 26.9493 59.3532 23.9097V5.51519C59.3532 2.47557 56.8737 0 53.8292 0ZM4.51978 4.24607C3.92345 4.26179 3.37416 4.54382 2.99746 4.99816C2.63652 5.46823 2.49527 6.06359 2.62084 6.65902C4.04895 15.7465 5.38292 21.8728 6.62275 25.0378C7.07784 26.1972 7.64281 26.7456 8.30202 26.6987C9.30633 26.6203 10.5304 25.2258 11.9585 22.4839C12.2762 21.8497 12.6634 21.0792 13.1181 20.1746L13.1206 20.1694C13.7663 18.8848 14.5475 17.3301 15.4583 15.5115C16.7765 20.071 18.5656 23.5023 20.8255 25.8055C21.469 26.448 22.0967 26.7456 22.7401 26.6987C23.2894 26.6673 23.7916 26.3225 24.027 25.8212C24.2624 25.3355 24.3723 24.7871 24.3095 24.2388C24.1526 22.0296 24.388 18.9429 24.9843 15.0101C25.5964 10.9364 26.3811 8.02214 27.3227 6.26729C27.511 5.92258 27.5895 5.51519 27.558 5.10787C27.5267 4.55947 27.2599 4.04238 26.8205 3.71338C26.3968 3.35302 25.8475 3.18064 25.2982 3.22767C24.6077 3.25898 23.9956 3.66636 23.6975 4.29309C22.2065 7.03503 21.1394 11.4848 20.4959 17.6267C19.4759 14.9475 18.7069 12.1742 18.2047 9.35395C17.9379 7.91243 17.2788 7.23873 16.2116 7.31707C15.474 7.36409 14.8776 7.84975 14.3911 8.75849L9.07092 18.8489C8.20778 15.3235 7.39175 11.0304 6.63842 5.98526C6.45009 4.74745 5.74387 4.16774 4.51978 4.24607ZM39.9249 8.80555C39.1088 7.34837 37.6963 6.31425 36.0485 6.00092C35.6091 5.90693 35.1697 5.8599 34.7303 5.8599C32.4076 5.8599 30.5087 7.06635 29.0334 9.47926C27.7779 11.5318 27.1188 13.8977 27.1502 16.2949C27.1502 18.1594 27.5425 19.7576 28.3115 21.0894C29.1276 22.5466 30.5401 23.5806 32.1879 23.894C32.6273 23.988 33.0667 24.035 33.5062 24.035C35.8446 24.035 37.7435 22.8286 39.2029 20.4156C40.4584 18.3474 41.1175 15.9816 41.0862 13.553C41.0862 11.6885 40.6938 10.106 39.9249 8.80555ZM36.8646 15.5272C36.5351 17.1097 35.9229 18.3005 35.0127 19.1152C34.3065 19.7576 33.6474 20.0083 33.051 19.8986C32.4547 19.7889 31.9839 19.2562 31.6229 18.3318C31.3561 17.6268 31.1992 16.8903 31.1992 16.1225C31.1992 15.5272 31.2619 14.9318 31.3718 14.352C31.6073 13.318 32.0309 12.3466 32.6587 11.4691C33.459 10.294 34.3065 9.79263 35.1854 9.98061C35.7817 10.106 36.2525 10.623 36.6135 11.5475C36.8803 12.2526 37.0372 12.9889 37.0372 13.7411C37.0372 14.3363 36.9901 14.9318 36.8646 15.5272ZM51.2398 6.00092C52.8878 6.31425 54.3002 7.34837 55.116 8.80555C55.8853 10.106 56.2776 11.6885 56.2776 13.553C56.3087 15.9816 55.6498 18.3474 54.3942 20.4156C52.9348 22.8286 51.036 24.035 48.6975 24.035C48.2581 24.035 47.8189 23.988 47.379 23.894C45.7316 23.5806 44.319 22.5466 43.5029 21.0894C42.7339 19.7576 42.3415 18.1594 42.3415 16.2949C42.3102 13.8977 42.9693 11.5318 44.2247 9.47926C45.7 7.06635 47.5992 5.8599 49.9214 5.8599C50.3613 5.8599 50.8005 5.90693 51.2398 6.00092ZM50.2038 19.1152C51.1141 18.3005 51.7261 17.1097 52.0562 15.5272C52.1812 14.9318 52.2289 14.3363 52.2289 13.7411C52.2289 12.9889 52.0714 12.2526 51.8048 11.5475C51.4436 10.623 50.9732 10.106 50.3765 9.98061C49.498 9.79263 48.6505 10.294 47.85 11.4691C47.2221 12.3466 46.7988 13.318 46.5632 14.352C46.4534 14.9318 46.3906 15.5272 46.3906 16.1225C46.3906 16.8903 46.5474 17.6268 46.814 18.3318C47.1752 19.2562 47.6463 19.7889 48.2423 19.8986C48.839 20.0083 49.4979 19.7576 50.2038 19.1152Z" fill="#9B5D90"/>
</svg>
